<?xml version="1.0" encoding="UTF-8"?>
<svg version="1.1" xmlns="http://www.w3.org/2000/svg" width="675" height="675">
<path d="M0 0 C222.75 0 445.5 0 675 0 C675 222.75 675 445.5 675 675 C452.25 675 229.5 675 0 675 C0 452.25 0 229.5 0 0 Z " fill="#3D3C3C" transform="translate(0,0)"/>
<path d="M0 0 C0.93924316 -0.00628418 1.87848633 -0.01256836 2.84619141 -0.01904297 C8.60924219 0.0867482 12.43777687 1.07061951 17.625 3.5 C19.9242926 3.91475402 22.23960397 4.24915858 24.5625 4.5 C29.27875167 5.09636481 33.21563446 5.91071546 37.55859375 7.77734375 C41.19177301 9.04792629 44.99178323 9.44955733 48.79296875 9.97265625 C51.62852114 10.50065566 53.96878543 11.39895622 56.625 12.5 C58.13560224 12.87699605 59.65779197 13.21010609 61.1875 13.5 C62.04859375 13.665 62.9096875 13.83 63.796875 14 C67.80911334 14.70934601 71.83369608 15.33494521 75.86328125 15.9375 C78.625 16.5 78.625 16.5 80.92211914 17.4453125 C83.80798164 18.57140102 86.60841098 19.27074731 89.6328125 19.9375 C90.78523437 20.19273437 91.93765625 20.44796875 93.125 20.7109375 C94.32125 20.97132813 95.5175 21.23171875 96.75 21.5 C97.92304688 21.76039063 99.09609375 22.02078125 100.3046875 22.2890625 C106.58901971 23.67161559 112.86538633 24.94622514 119.21826172 25.97265625 C121.83907831 26.54690699 124.14229553 27.49204759 126.625 28.5 C128.06066937 28.85187657 129.50712842 29.16247445 130.9609375 29.4296875 C131.76990479 29.5831665 132.57887207 29.73664551 133.41235352 29.89477539 C134.26627686 30.05324951 135.1202002 30.21172363 136 30.375 C142.14498674 31.55115635 148.16956653 32.84965307 154.1875 34.5625 C160.770959 36.40326979 167.34564693 37.52139256 174.10571289 38.46118164 C174.8661792 38.56938232 175.62664551 38.67758301 176.41015625 38.7890625 C177.07926025 38.87881348 177.74836426 38.96856445 178.43774414 39.06103516 C181.25906714 39.62725223 183.89729996 40.58554523 186.625 41.5 C188.80217328 42.05449488 190.98643099 42.58166226 193.17578125 43.0859375 C194.42391602 43.37500977 195.67205078 43.66408203 196.95800781 43.96191406 C197.60854126 44.11116333 198.25907471 44.2604126 198.92932129 44.41418457 C200.95841362 44.87979904 202.98662815 45.34907563 205.01464844 45.81933594 C209.85093545 46.94007443 214.68856988 48.05491106 219.52685547 49.16699219 C227.63843967 51.03292583 235.70109186 52.93008385 243.625 55.5 C243.625 56.16 243.625 56.82 243.625 57.5 C244.35847656 57.7578125 245.09195312 58.015625 245.84765625 58.28125 C254.34119384 62.00837198 259.55278618 69.47934785 263.625 77.5 C264.03878906 78.2115625 264.45257812 78.923125 264.87890625 79.65625 C272.79688427 95.3266734 266.24317857 115.32540121 261.75 131 C261.15256877 133.15537028 260.55746634 135.3113873 259.96459961 137.46801758 C258.48676986 142.82322546 256.98112443 148.17012713 255.46710205 153.51519775 C254.20810637 157.97766538 252.97596109 162.44740181 251.74609375 166.91796875 C250.09783299 172.90088546 248.43748473 178.8801975 246.76171875 184.85546875 C244.97494289 191.22822909 243.22683779 197.61075944 241.5 204 C239.32202791 212.04186104 237.04894752 220.05443526 234.75 228.0625 C229.62589251 245.91667813 224.6695285 263.8159231 219.88061523 281.76293945 C217.32049049 291.3554224 214.65229559 300.89324076 211.7512207 310.38818359 C209.87849406 316.55312224 208.20088138 322.75356349 206.59375 328.99243164 C204.82880257 335.81544299 202.92122482 342.59453109 201 349.375 C199.21390056 355.68278088 197.44451639 361.96375238 196.0625 368.375 C194.76077106 374.33596604 192.90307887 380.06643494 191.02709961 385.86523438 C188.76566767 392.91219728 186.79450702 400.01897696 184.87573242 407.16577148 C182.9520816 414.3280083 180.94630526 421.4627038 178.87280273 428.58300781 C177.55233084 433.14440406 176.30581991 437.71163744 175.16015625 442.3203125 C172.6018108 452.49334795 170.31777358 461.20279439 163.625 469.5 C162.99335938 470.34304688 162.36171875 471.18609375 161.7109375 472.0546875 C156.49772306 478.16605874 148.92803975 482.30964516 141.625 485.5 C140.903125 485.85835937 140.18125 486.21671875 139.4375 486.5859375 C135.57038059 487.84275131 131.97970751 487.84015192 127.9375 487.8125 C127.133125 487.80976074 126.32875 487.80702148 125.5 487.80419922 C120.34849814 487.71369424 115.85713596 487.1589426 111.00317383 485.32202148 C108.70294126 484.52694058 106.51576796 484.01932669 104.125 483.578125 C98.08761682 482.41529568 92.11126119 481.02462225 86.125 479.625 C76.80586513 477.44349773 76.80586513 477.44349773 67.45703125 475.39453125 C59.11733905 473.63339224 51.18536495 471.45546904 43.1328125 468.66015625 C35.8120388 466.23892041 28.30917774 464.79242435 20.73071289 463.42993164 C20.05645264 463.3086792 19.38219238 463.18742676 18.6875 463.0625 C17.67901001 462.88158813 17.67901001 462.88158813 16.65014648 462.69702148 C10.91569553 461.6323773 5.38208098 460.0735106 -0.20703125 458.40625 C-3.70889362 457.40448419 -7.19899041 456.66700679 -10.77734375 456.00390625 C-16.00905946 454.98903207 -21.18784844 453.71954974 -26.375 452.5 C-26.01464546 446.97456373 -24.3402635 443.17282581 -21.765625 438.3046875 C-20.25626375 435.26052632 -19.05880078 432.18427424 -17.875 429 C-16.0555296 424.1290667 -13.95659076 419.57737471 -11.5625 414.96875 C-9.86639058 411.44262779 -8.6311104 407.78843546 -7.34375 404.09765625 C-6.2102761 401.05830084 -4.80172797 398.25113506 -3.3046875 395.37890625 C-2.08169281 392.9072237 -1.16129162 390.36756704 -0.22265625 387.77734375 C0.83668217 384.93128706 1.97288907 382.12227502 3.125 379.3125 C3.5271875 378.32894531 3.929375 377.34539062 4.34375 376.33203125 C5.59290998 373.57093068 7.05235995 371.08657902 8.625 368.5 C11.57704171 362.53840927 13.43607474 358.04773176 11.625 351.5 C10.09864408 349.97364408 8.55940638 350.31189987 6.4375 350.1875 C-0.49730266 349.45232314 -4.65182774 345.74168567 -9.0234375 340.57421875 C-10.58042216 338.18474229 -11.28528395 335.9067674 -12.125 333.1875 C-12.92579366 330.60340397 -12.92579366 330.60340397 -14.375 328.5 C-17.67250772 327.05473159 -20.7958097 326.65027135 -24.375 326.5 C-23.10638935 337.80813289 -19.29925541 346.90791362 -10.27734375 354.12890625 C-8.04967896 355.73447163 -5.8011896 357.21108677 -3.375 358.5 C-5.17774835 362.50834549 -7.69389644 366.02693566 -10.1875 369.625 C-10.66670898 370.32222168 -11.14591797 371.01944336 -11.63964844 371.73779297 C-14.28137122 375.55955313 -16.97435826 379.33386533 -19.74609375 383.0625 C-30.41271785 397.43323996 -37.3216836 411.91862426 -43.36328125 428.75390625 C-44.67248793 432.30746723 -46.09594586 435.80921966 -47.54296875 439.30859375 C-48.32137765 441.3587693 -48.89306893 443.36295214 -49.375 445.5 C-51.04111905 445.542721 -52.70882885 445.54063832 -54.375 445.5 C-54.705 445.17 -55.035 444.84 -55.375 444.5 C-57.97707614 443.95900338 -60.57136945 443.46234328 -63.1875 443 C-71.43751169 441.51866457 -71.43751169 441.51866457 -75.375 440.5 C-74.99074304 436.65743043 -74.08382845 433.68029187 -72.328125 430.28125 C-71.96364258 429.57033203 -71.59916016 428.85941406 -71.22363281 428.12695312 C-70.94358398 427.59005859 -70.66353516 427.05316406 -70.375 426.5 C-72.15161011 426.50954712 -72.15161011 426.50954712 -73.96411133 426.51928711 C-78.40585828 426.53383994 -82.84633083 426.50214676 -87.2878418 426.45727539 C-89.20120887 426.44422641 -91.11470226 426.44331743 -93.02807617 426.45532227 C-106.44410463 426.52886353 -115.08112576 425.63461935 -125.05859375 415.875 C-125.63738281 415.09125 -126.21617187 414.3075 -126.8125 413.5 C-127.44414062 412.64535156 -128.07578125 411.79070312 -128.7265625 410.91015625 C-130.85153527 407.80326479 -132.71163059 404.88834509 -134.375 401.5 C-134.67277344 400.89542969 -134.97054687 400.29085938 -135.27734375 399.66796875 C-138.46025058 391.99672326 -137.62733235 383.64005462 -137.375 375.5 C-117.52727167 375.21754738 -97.92099722 375.9086291 -78.125 377.25634766 C-72.69026402 377.60946397 -67.25298459 377.87854705 -61.8125 378.125 C-60.93779053 378.16488037 -60.06308105 378.20476074 -59.16186523 378.24584961 C-57.23299594 378.33249764 -55.30401276 378.41660696 -53.375 378.5 C-53.27316406 377.66210938 -53.17132813 376.82421875 -53.06640625 375.9609375 C-52.29375555 372.09331876 -50.9206453 368.69948538 -49.3125 365.125 C-49.03083984 364.48433594 -48.74917969 363.84367187 -48.45898438 363.18359375 C-47.77040579 361.61970341 -47.07355289 360.05946059 -46.375 358.5 C-58.28660054 358.39535694 -70.16273288 358.42314972 -82.0625 359 C-98.82160679 359.79857542 -115.60181641 359.58873256 -132.375 359.5 C-131.71208476 354.08596812 -130.55735512 348.94994467 -129.15234375 343.68359375 C-128.93115875 342.84206757 -128.70997375 342.00054138 -128.48208618 341.1335144 C-127.76269138 338.40049102 -127.03769208 335.66899026 -126.3125 332.9375 C-125.81276595 331.04394406 -125.31333801 329.15030731 -124.81420898 327.2565918 C-123.34014087 321.6695525 -121.85853374 316.08453224 -120.375 310.5 C-120.05964294 309.31198792 -120.05964294 309.31198792 -119.73791504 308.09997559 C-117.59181979 300.01534628 -115.44039779 291.93215427 -113.27001953 283.85400391 C-112.617849 281.41005443 -111.97317387 278.96479796 -111.33544922 276.51708984 C-111.07102272 275.50862251 -111.07102272 275.50862251 -110.80125427 274.4797821 C-110.30541141 272.58757872 -109.81264725 270.69456936 -109.32006836 268.80151367 C-108.375 265.5 -108.375 265.5 -107.37133789 263.04882812 C-106.05902538 259.69167483 -105.31225816 256.24697196 -104.53125 252.73828125 C-102.52688767 243.99218185 -100.24092359 235.34163114 -97.875 226.6875 C-97.44683228 225.11172714 -97.01894313 223.53587857 -96.59130859 221.95996094 C-94.40779352 213.9211865 -92.20800972 205.88689115 -90.00311279 197.85395813 C-88.92942592 193.9412071 -87.8576995 190.02791982 -86.78588867 186.11465454 C-86.02191405 183.32987923 -85.25425892 180.54613766 -84.48632812 177.76245117 C-82.0782716 168.99860569 -79.79066016 160.22965133 -77.75331116 151.37199402 C-76.33076176 145.21332691 -74.67950972 139.13730421 -72.9375 133.0625 C-72.37600587 131.08471949 -71.81481637 129.10685247 -71.25390625 127.12890625 C-70.95758301 126.08557129 -70.66125977 125.04223633 -70.35595703 123.96728516 C-66.22015106 109.34888883 -62.27005233 94.68419917 -58.375 80 C-57.35534412 76.15593612 -56.33470533 72.31213677 -55.3125 68.46875 C-54.94185425 67.07438721 -54.94185425 67.07438721 -54.5637207 65.65185547 C-52.77221745 58.93416186 -50.92972434 52.2317833 -49.02319336 45.54577637 C-47.80190878 41.21740782 -46.7696296 36.87952868 -45.85661316 32.47535706 C-43.36942664 22.27405474 -35.1841109 12.76032288 -26.6875 6.88671875 C-17.7967307 1.55526081 -10.23976242 0.0525116 0 0 Z " fill="#FBFBFB" transform="translate(319.375,128.5)"/>
<path d="M0 0 C15.56567694 -0.38454411 27.88549937 5.02706017 39.22265625 15.734375 C42.70010676 19.52296582 45.18051027 23.56264106 47.44921875 28.16015625 C47.77664063 28.8046875 48.1040625 29.44921875 48.44140625 30.11328125 C51.10798884 36.15753511 51.16104906 42.64155918 51.44921875 49.16015625 C52.10921875 49.16015625 52.76921875 49.16015625 53.44921875 49.16015625 C53.44921875 51.47015625 53.44921875 53.78015625 53.44921875 56.16015625 C38.74513348 54.65868275 24.53248794 50.6538576 10.3125 46.76171875 C1.74984162 44.4269226 -6.68895701 42.52674627 -15.46606445 41.18505859 C-20.04203854 40.46940676 -24.25483591 39.48675271 -28.58203125 37.85546875 C-32.14476915 36.59720021 -35.851996 35.90341097 -39.55078125 35.16015625 C-39.55078125 34.50015625 -39.55078125 33.84015625 -39.55078125 33.16015625 C-40.68515625 33.22203125 -41.81953125 33.28390625 -42.98828125 33.34765625 C-57.6252008 33.32471437 -73.02782936 28.82812735 -86.92578125 24.53515625 C-99.01589066 20.85992365 -111.23186368 19.16265538 -123.41796875 23.42578125 C-126.08796395 24.34512026 -128.75621598 24.79245029 -131.55078125 25.16015625 C-131.55078125 25.82015625 -131.55078125 26.48015625 -131.55078125 27.16015625 C-132.63939453 27.546875 -132.63939453 27.546875 -133.75 27.94140625 C-144.00444591 32.40359192 -152.45169833 42.39251984 -157.55078125 52.16015625 C-158.77416865 55.5151511 -159.79056961 58.92327856 -160.80078125 62.34765625 C-161.1037915 63.35940918 -161.40680176 64.37116211 -161.71899414 65.41357422 C-164.56164781 75.00266532 -167.15817491 84.6548762 -169.7265625 94.3203125 C-171.67005243 101.63204252 -173.66563979 108.9289973 -175.67578125 116.22265625 C-176.18806274 118.08229004 -176.18806274 118.08229004 -176.71069336 119.97949219 C-178.42741968 126.18525123 -180.18751912 132.37199727 -182.05078125 138.53515625 C-184.91154421 148.05652953 -187.30574655 157.70380033 -189.77095032 167.33308411 C-189.94579453 168.01593979 -190.12063873 168.69879547 -190.30078125 169.40234375 C-190.56818367 170.44674873 -190.56818367 170.44674873 -190.84098816 171.51225281 C-192.89483603 179.52161974 -194.98995226 187.52009982 -197.09268188 195.51675415 C-197.51459358 197.12173378 -197.9359824 198.72685098 -198.35678101 200.3321228 C-200.76324793 209.51132323 -203.22994664 218.67072786 -205.78207397 227.81054688 C-207.51607687 234.0206451 -209.19943648 240.24339002 -210.86328125 246.47265625 C-213.09680259 254.81483662 -215.37436243 263.14327921 -217.69140625 271.46264648 C-220.56789453 281.79398884 -223.37862249 292.10245265 -225.6640625 302.58203125 C-226.3194413 305.22664349 -227.04423997 307.67656529 -227.93359375 310.23828125 C-230.47072792 317.64857429 -232.17044961 325.3127626 -234.03320312 332.9140625 C-234.32904297 334.08839844 -234.62488281 335.26273437 -234.9296875 336.47265625 C-235.19338135 337.54128906 -235.4570752 338.60992187 -235.72875977 339.7109375 C-236.55078125 342.16015625 -236.55078125 342.16015625 -238.55078125 343.16015625 C-240.13691921 335.65131167 -241.04841395 328.13439526 -241.76513672 320.50268555 C-242.31479894 314.8286559 -243.13172931 309.22229139 -244.02001953 303.59179688 C-244.9202725 297.77121007 -245.69649849 291.93381068 -246.48828125 286.09765625 C-247.65500387 277.54550319 -248.85727987 269.00272743 -250.17578125 260.47265625 C-251.26199245 253.43458317 -252.11235598 246.3938364 -252.85205078 239.31152344 C-253.26883073 235.40823567 -253.78669418 231.57270738 -254.55078125 227.72265625 C-255.51390021 222.84733315 -256.00925364 217.97595586 -256.48828125 213.03515625 C-257.08137785 206.97443183 -257.85159181 201.01773225 -258.98828125 195.03515625 C-260.9321207 184.75034373 -262.02342794 174.3637981 -263.22314453 163.97119141 C-264.26241672 155.05451482 -265.52664572 146.19367475 -267.05078125 137.34765625 C-268.17862396 130.78395872 -269.04049574 124.23947007 -269.70654297 117.61401367 C-270.32797368 111.65450584 -271.20550741 105.75106283 -272.11767578 99.82958984 C-277.53375371 64.21994362 -277.53375371 64.21994362 -267.90625 49.67578125 C-260.19888769 39.30650826 -252.5986498 32.11991516 -239.55078125 30.16015625 C-239.55078125 29.50015625 -239.55078125 28.84015625 -239.55078125 28.16015625 C-238.33003906 28.03898437 -237.10929687 27.9178125 -235.8515625 27.79296875 C-225.14173092 26.73066009 -225.14173092 26.73066009 -214.48828125 25.22265625 C-207.99151834 24.16060561 -201.46639304 23.45105212 -194.92578125 22.72265625 C-187.22825956 21.86059917 -179.56781294 20.92581073 -171.92578125 19.66015625 C-156.18972066 17.067495 -140.3760845 15.22013233 -124.48193359 13.93164062 C-116.77850758 13.29873311 -109.10635224 12.46151245 -101.42578125 11.59765625 C-89.80652266 10.302633 -78.23414742 9.52684198 -66.55078125 9.16015625 C-66.55078125 8.50015625 -66.55078125 7.84015625 -66.55078125 7.16015625 C-65.34470215 7.04740356 -65.34470215 7.04740356 -64.11425781 6.93237305 C-44.7521694 5.14364623 -44.7521694 5.14364623 -25.48828125 2.53515625 C-16.98893861 1.18864082 -8.60011348 0.38790391 0 0 Z " fill="#FAFBFA" transform="translate(425.55078125,97.83984375)"/>
<path d="M0 0 C1.22396484 -0.00773437 2.44792969 -0.01546875 3.70898438 -0.0234375 C18.57961912 0.00855956 18.57961912 0.00855956 25.0625 3.25 C25.0625 3.91 25.0625 4.57 25.0625 5.25 C25.578125 5.353125 26.09375 5.45625 26.625 5.5625 C44.9681789 10.73621712 59.40592824 25.37259263 69.0625 41.25 C71.06450571 44.83098319 72.64024312 48.4050394 74.0625 52.25 C74.45308594 53.17683594 74.84367188 54.10367188 75.24609375 55.05859375 C81.20523184 71.5750976 80.59838745 94.64619563 73.5 110.75 C73.06558594 111.7503125 72.63117188 112.750625 72.18359375 113.78125 C71.50182604 115.28256425 70.79989429 116.77521142 70.0625 118.25 C69.4025 118.25 68.7425 118.25 68.0625 118.25 C67.80726563 118.96542969 67.55203125 119.68085938 67.2890625 120.41796875 C59.73926493 137.84982621 42.57277008 149.24480395 25.53125 156.03125 C8.8783981 161.88225202 -10.43806118 163.12476617 -26.9375 156.25 C-28.071875 155.8375 -29.20625 155.425 -30.375 155 C-49.66525818 147.55463719 -62.48683017 133.25022929 -71.9375 115.25 C-72.34742188 114.55519531 -72.75734375 113.86039062 -73.1796875 113.14453125 C-81.90814519 97.81898345 -82.46696459 76.489165 -78.375 59.6875 C-75.22420291 48.89908168 -70.26738613 38.82194321 -62.9375 30.25 C-62.30457031 29.47398437 -61.67164063 28.69796875 -61.01953125 27.8984375 C-53.05799697 18.53022048 -43.58194218 10.50710789 -31.9375 6.25 C-31.11507812 5.90453125 -30.29265625 5.5590625 -29.4453125 5.203125 C-19.36447232 0.97468748 -10.90666167 -0.06870338 0 0 Z " fill="#3E3E3E" transform="translate(413.9375,386.75)"/>
<path d="M0 0 C4.64136499 3.69458348 8.82372118 7.79569246 13 12 C13.23847656 11.26652344 13.47695313 10.53304687 13.72265625 9.77734375 C17.59276709 1.36251558 27.71086986 -4.57086581 36 -8 C39.04233803 -8.86430058 41.84474409 -8.96880397 45 -9 C46.38024147 -9.06044601 47.76044654 -9.1217258 49.140625 -9.18359375 C63.37737234 -9.66898896 73.68234981 -7.03880015 85 2 C85.71027344 2.5465625 86.42054688 3.093125 87.15234375 3.65625 C95.89065817 10.76766135 100.70324247 19.34757379 104 30 C104.33 30.99 104.66 31.98 105 33 C106.10498907 45.77367371 106.39654455 60.98477737 98.625 71.875 C96 74 96 74 92.8125 74.5 C90 74 90 74 88 72 C87.41225165 66.31843262 88.10261455 62.93971907 91.02734375 58.0546875 C94.91499373 49.84222208 94.03000953 37.86055052 91.09765625 29.47265625 C85.20003029 16.18725684 76.07401248 9.02960499 62.875 3.75 C52.9558661 1.83016763 42.96077284 1.98142903 34 7 C30.29872007 9.6990709 27.02145647 12.55574586 24 16 C23.54181885 16.48339844 23.0836377 16.96679688 22.61157227 17.46484375 C17.1531885 24.33486186 18.46136311 33.21570985 18.6875 41.5 C18.71261501 43.10152768 18.73542254 44.70309329 18.75585938 46.3046875 C18.8106014 50.20407136 18.89669147 54.10161285 19 58 C19.54414551 57.52079102 20.08829102 57.04158203 20.64892578 56.54785156 C21.3654834 55.9184668 22.08204102 55.28908203 22.8203125 54.640625 C23.52945801 54.01704102 24.23860352 53.39345703 24.96923828 52.75097656 C34.80760741 44.26807401 45.54229028 42.97296275 58.1015625 43.78417969 C62.25407098 44.25624984 65.50734804 45.79857089 69 48 C70.12728516 48.66515625 70.12728516 48.66515625 71.27734375 49.34375 C76.50305556 52.50305556 76.50305556 52.50305556 78 54 C78.1875 56.9375 78.1875 56.9375 78 60 C76 62 76 62 73.375 62.375 C69.58246963 61.95360774 67.13590439 60.79076395 63.83203125 58.97265625 C56.93728018 55.31211677 47.72300442 56.36237139 40.3125 57.9375 C30.6253413 60.97356286 24.92546356 68.29591988 20.29932022 76.93596077 C18.21296525 81.85597462 18.19472561 86.36877286 18.29052734 91.65014648 C18.28632278 92.75723465 18.28211823 93.86432281 18.27778625 95.00495911 C18.27013817 98.62757673 18.30353917 102.248634 18.3359375 105.87109375 C18.33484283 108.40170115 18.33053026 110.93230901 18.32315063 113.46290588 C18.30842118 120.77579102 18.33431911 128.0881578 18.36656952 135.40093231 C18.40782612 145.36736953 18.4173138 155.33355416 18.39805984 165.30006599 C18.39843325 169.01628706 18.42421168 172.73175506 18.45175171 176.44786072 C18.45243627 178.71711215 18.45213433 180.98636416 18.45068359 183.25561523 C18.46514023 184.28993683 18.47959686 185.32425842 18.49449158 186.3899231 C18.45605201 193.34778029 18.45605201 193.34778029 16.13198853 196.67152405 C14 198 14 198 11.4375 198 C8.48220619 196.78757177 7.65674045 195.70128942 6 193 C5.63199902 190.75536156 5.63199902 190.75536156 5.64164734 188.25839233 C5.63778015 187.30813171 5.63391296 186.35787109 5.62992859 185.3788147 C5.64078995 184.34292206 5.65165131 183.30702942 5.6628418 182.23974609 C5.66201096 180.59510376 5.66201096 180.59510376 5.66116333 178.91723633 C5.66142335 176.53494745 5.66831033 174.15265226 5.68100548 171.77039719 C5.69935698 167.99499993 5.69672213 164.22015844 5.6879425 160.44473267 C5.66611522 149.7099623 5.67686801 138.97543787 5.71508789 128.24072266 C5.73821243 121.67426514 5.72961171 115.10821651 5.7046299 108.54176712 C5.70104268 106.04362688 5.70866476 103.54544364 5.72788048 101.04737473 C5.75430169 97.54318254 5.74373699 94.04082516 5.7253418 90.53662109 C5.75074287 89.00100021 5.75074287 89.00100021 5.7766571 87.43435669 C5.66706857 78.83577516 2.60822873 72.59120878 -3.484375 66.52734375 C-4.23203125 66.00269531 -4.9796875 65.47804688 -5.75 64.9375 C-6.50796875 64.38964844 -7.2659375 63.84179688 -8.046875 63.27734375 C-9.96400598 61.96996469 -9.96400598 61.96996469 -12 61 C-12 60.34 -12 59.68 -12 59 C-19.81975526 56.54674345 -29.2598988 55.11746934 -37.0625 58.3125 C-39.95914247 59.84882715 -39.95914247 59.84882715 -42 61.75 C-45.10876483 63.69297802 -47.55422467 62.78017555 -51 62 C-52 61 -52 61 -52.5625 57.8125 C-51.94394277 53.62005653 -51.64095232 53.18305116 -48.5 50.6875 C-44.44476482 47.96955271 -40.76061745 46.91871565 -36 46 C-35.67 45.67 -35.34 45.34 -35 45 C-16.00200674 43.78269161 -16.00200674 43.78269161 -8 49 C-6.81664062 49.72316406 -6.81664062 49.72316406 -5.609375 50.4609375 C-1.61818866 52.99727205 1.68040639 55.62716477 5 59 C5.12443339 54.30445826 5.21472547 49.60989466 5.2746582 44.91308594 C5.29966413 43.31851464 5.33368099 41.72405635 5.37719727 40.12988281 C5.9241616 27.61654452 5.9241616 27.61654452 0 17 C-0.52722656 16.30648437 -1.05445313 15.61296875 -1.59765625 14.8984375 C-8.79192725 7.41639566 -16.52940452 3.73534875 -26.89990234 3.39819336 C-27.81980957 3.39053955 -28.7397168 3.38288574 -29.6875 3.375 C-30.56615723 3.36412354 -31.44481445 3.35324707 -32.35009766 3.34204102 C-42.64732226 3.56547319 -50.55800949 8.07656626 -58 15 C-60.21731441 17.54097468 -62.14597604 20.18596364 -64 23 C-64.556875 23.804375 -65.11375 24.60875 -65.6875 25.4375 C-69.5832594 33.04350645 -70.47529864 40.01919276 -70.375 48.5 C-70.38660156 49.48097656 -70.39820313 50.46195313 -70.41015625 51.47265625 C-70.37775757 59.58312679 -68.69234038 66.02884636 -64.8125 73.125 C-62.87644673 76.84817937 -62.40790122 79.77072298 -63 84 C-66 86 -66 86 -68.8125 86.75 C-72.62323908 85.85335551 -72.98563492 85.19023605 -75.0625 82 C-80.94551607 70.87038912 -83.43735589 60.68110207 -83.5 48.125 C-83.50628418 47.17471924 -83.51256836 46.22443848 -83.51904297 45.24536133 C-83.23202072 29.26546715 -75.89137062 15.87606706 -64.73046875 4.734375 C-58.23079091 -1.24488571 -51.94536089 -5.19329809 -43.3125 -7.25 C-42.61479492 -7.41765869 -41.91708984 -7.58531738 -41.19824219 -7.75805664 C-26.43690127 -11.08324647 -12.60039231 -8.43169965 0 0 Z " fill="#444444" transform="translate(389,185)"/>
<path d="M0 0 C1.22396484 -0.00773437 2.44792969 -0.01546875 3.70898438 -0.0234375 C18.57961912 0.00855956 18.57961912 0.00855956 25.0625 3.25 C25.0625 3.91 25.0625 4.57 25.0625 5.25 C25.578125 5.353125 26.09375 5.45625 26.625 5.5625 C44.9681789 10.73621712 59.40592824 25.37259263 69.0625 41.25 C71.06450571 44.83098319 72.64024312 48.4050394 74.0625 52.25 C74.45308594 53.17683594 74.84367188 54.10367188 75.24609375 55.05859375 C81.20523184 71.5750976 80.59838745 94.64619563 73.5 110.75 C73.06558594 111.7503125 72.63117188 112.750625 72.18359375 113.78125 C71.50182604 115.28256425 70.79989429 116.77521142 70.0625 118.25 C69.4025 118.25 68.7425 118.25 68.0625 118.25 C67.80726563 118.96542969 67.55203125 119.68085938 67.2890625 120.41796875 C59.73926493 137.84982621 42.57277008 149.24480395 25.53125 156.03125 C8.8783981 161.88225202 -10.43806118 163.12476617 -26.9375 156.25 C-28.071875 155.8375 -29.20625 155.425 -30.375 155 C-49.66525818 147.55463719 -62.48683017 133.25022929 -71.9375 115.25 C-72.34742188 114.55519531 -72.75734375 113.86039062 -73.1796875 113.14453125 C-81.90814519 97.81898345 -82.46696459 76.489165 -78.375 59.6875 C-75.22420291 48.89908168 -70.26738613 38.82194321 -62.9375 30.25 C-62.30457031 29.47398437 -61.67164063 28.69796875 -61.01953125 27.8984375 C-53.05799697 18.53022048 -43.58194218 10.50710789 -31.9375 6.25 C-31.11507812 5.90453125 -30.29265625 5.5590625 -29.4453125 5.203125 C-19.36447232 0.97468748 -10.90666167 -0.06870338 0 0 Z M-51.62109375 33.453125 C-63.58341292 47.89666721 -68.11341867 61.81530635 -68.1875 80.4375 C-68.208125 81.71431641 -68.22875 82.99113281 -68.25 84.30664062 C-68.31530643 100.18426529 -63.11224869 112.19715368 -52.9375 124.25 C-52.29167969 125.0646875 -51.64585937 125.879375 -50.98046875 126.71875 C-42.05271867 137.45192634 -28.95425739 146.20495059 -14.9375 148.25 C-0.61259395 149.3373233 15.76921459 150.14989563 28.75 143.125 C29.76449219 142.58617187 30.77898437 142.04734375 31.82421875 141.4921875 C32.56285156 141.08226562 33.30148437 140.67234375 34.0625 140.25 C34.0625 139.59 34.0625 138.93 34.0625 138.25 C34.78824219 138.0025 35.51398438 137.755 36.26171875 137.5 C49.34295472 131.66179148 58.11464607 117.0148776 63.0625 104.25 C69.06071517 88.30443422 69.25549982 69.34030344 62.55078125 53.453125 C59.30100014 46.38618526 55.23607444 40.05137898 50.0625 34.25 C49.51980469 33.63769531 48.97710937 33.02539062 48.41796875 32.39453125 C39.66863442 23.11245057 26.28341755 13.68493266 13.125 13.125 C12.444375 13.16625 11.76375 13.2075 11.0625 13.25 C11.0625 12.59 11.0625 11.93 11.0625 11.25 C-13.92856123 10.01922416 -33.93018267 14.68385526 -51.62109375 33.453125 Z " fill="#464646" transform="translate(413.9375,386.75)"/>
<path d="M0 0 C1.21042969 -0.01417969 2.42085938 -0.02835937 3.66796875 -0.04296875 C6.8125 0.1875 6.8125 0.1875 9.8125 2.1875 C10.24382515 6.24195642 10.11269361 7.73720958 7.8125 11.1875 C4.8359375 11.59375 4.8359375 11.59375 1.1875 11.6875 C-8.10303422 12.19046048 -14.78360126 14.17157364 -21.1875 21.1875 C-26.84867149 27.86093394 -28.07457847 33.87327787 -27.71484375 42.55078125 C-26.72199407 49.39776682 -23.79601709 55.8876369 -18.1875 60.1875 C-14.8421121 61.3026293 -12.26991188 61.32049072 -8.75 61.3125 C-7.61691406 61.31507813 -6.48382813 61.31765625 -5.31640625 61.3203125 C-2.70685003 61.20954482 -0.67336053 60.88247176 1.8125 60.1875 C5.4375 59.9375 5.4375 59.9375 8.8125 60.1875 C10.8125 63.1875 10.8125 63.1875 11.375 65.5625 C10.72037287 68.61742659 10.16497551 69.03940202 7.75 70.875 C0.5076074 75.4811617 -7.14348602 76.13638957 -15.4765625 74.828125 C-24.38369331 72.49905193 -30.94946842 65.63157398 -35.6875 58 C-39.45466739 51.396506 -40.47721991 45.78824981 -40.3125 38.3125 C-40.30347656 37.52875 -40.29445313 36.745 -40.28515625 35.9375 C-40.26178063 34.02069945 -40.22591653 32.10405809 -40.1875 30.1875 C-51.469053 31.46645779 -59.46464968 34.15891554 -66.75390625 43.1484375 C-68.7835518 46.0352903 -70.05476043 48.84889917 -71.1875 52.1875 C-71.7753125 53.92 -71.7753125 53.92 -72.375 55.6875 C-74.85550443 66.72146798 -73.93833466 77.40249775 -68.1875 87.1875 C-64.37072961 92.44718935 -64.37072961 92.44718935 -59.1875 96.1875 C-58.75 98.6875 -58.75 98.6875 -59.1875 102.1875 C-60.60546875 104.015625 -60.60546875 104.015625 -62.4375 105.9375 C-69.22688757 113.26397908 -70.74440801 120.59909931 -70.59228516 130.42578125 C-70.11103578 142.10929217 -63.61920501 152.29650554 -55.1875 160.1875 C-45.26954964 167.24622143 -35.61250039 167.42905579 -23.8125 167.1875 C-21.28402164 167.13667631 -18.75534858 167.09454375 -16.2265625 167.0625 C-15.11490723 167.03929687 -14.00325195 167.01609375 -12.85791016 166.9921875 C-10.1875 167.1875 -10.1875 167.1875 -8.1875 169.1875 C-7.9375 172.1875 -7.9375 172.1875 -8.1875 175.1875 C-13.02763801 180.02763801 -21.37884595 178.5601609 -27.81933594 178.64746094 C-29.29720877 178.67384003 -30.77490603 178.71450915 -32.25195312 178.77050781 C-45.33181709 179.25908959 -54.2697453 176.36263833 -65 168.5625 C-69.93515851 163.94208374 -73.49884553 157.81438839 -77.1875 152.1875 C-77.8475 151.1975 -78.5075 150.2075 -79.1875 149.1875 C-82.24883582 142.13800191 -82.47780111 134.93698752 -82.5 127.375 C-82.50531738 126.46766113 -82.51063477 125.56032227 -82.51611328 124.62548828 C-82.4353968 116.95459021 -80.32911666 111.26577353 -76.9921875 104.43359375 C-76.04287186 101.78380494 -75.86495566 99.98579008 -76.1875 97.1875 C-77.33544259 94.86960364 -77.33544259 94.86960364 -78.9375 92.625 C-86.36848297 80.65090422 -88.05298732 68.33177719 -85.52734375 54.59765625 C-82.13604402 42.25097627 -74.66476678 30.60428388 -63.7421875 23.625 C-55.87273927 19.48058839 -48.32611856 17.17964171 -39.4375 16.9375 C-35.03405356 16.76000335 -35.03405356 16.76000335 -31.2734375 14.75 C-29.79025114 12.95734472 -29.79025114 12.95734472 -28.50390625 11.03125 C-24.45384088 5.35875488 -17.06061601 1.98072291 -10.421875 0.62109375 C-6.91807816 0.15138185 -3.53468765 0.01894259 0 0 Z " fill="#454545" transform="translate(338.1875,272.8125)"/>
<path d="M0 0 C10.63415909 2.63161951 20.6388243 7.92768028 26.9375 17.0625 C29.78347747 21.15506264 33.05012072 22.99057025 37.3515625 25.38671875 C51.96041121 34.28561922 61.50512471 48.96967391 65.875 65.25 C68.07067732 75.95555094 68.09475223 87.49361184 65 98 C64.82855469 98.82113281 64.65710938 99.64226562 64.48046875 100.48828125 C60.69867223 117.34777412 48.77289005 132.28920191 34.3828125 141.56640625 C33.59648437 142.03949219 32.81015625 142.51257813 32 143 C30.78957031 143.75603516 30.78957031 143.75603516 29.5546875 144.52734375 C25.48085827 146.95416281 22.85441473 148.4112544 18 148 C16.1875 146.875 16.1875 146.875 15 145 C14.5625 142.0625 14.5625 142.0625 15 139 C17.79852366 135.62089684 20.64688392 134.06014203 24.625 132.3125 C37.48285987 126.01636692 46.03002766 115.57715699 51.44921875 102.50390625 C56.36350832 86.7609365 55.88228023 69.14743078 48.6796875 54.2734375 C45.35133896 48.25330981 41.07132414 43.60795442 36 39 C35.92523438 39.65484375 35.85046875 40.3096875 35.7734375 40.984375 C34.3314511 50.99345711 30.42027128 60.91701378 23 68 C15.14397402 73.50181952 9.59263382 75.3334984 0 74.6875 C-0.69867188 74.65205078 -1.39734375 74.61660156 -2.1171875 74.58007812 C-6.94239443 74.27508863 -10.75774238 73.46906533 -14.8125 70.8125 C-16.71116097 67.91454379 -16.30537294 65.35910239 -16 62 C-14 60 -14 60 -10.5 59.8125 C-7 60 -7 60 -5 61 C-5 61.66 -5 62.32 -5 63 C-2.89590361 63.02701408 -0.79170822 63.04640223 1.3125 63.0625 C2.48425781 63.07410156 3.65601563 63.08570313 4.86328125 63.09765625 C8.73192194 62.97721289 10.44070775 62.48570117 13.375 59.9375 C19.99659197 52.52762327 22.43951001 46.31883335 22.33984375 36.36328125 C21.67982791 29.83140038 18.55991352 25.20913455 13.875 20.75 C6.12286239 14.75211767 -1.51079297 12.45299528 -11.25 12.3359375 C-14 12 -14 12 -15.8515625 10.6640625 C-17.64408122 8.06673946 -17.38278728 6.06229826 -17 3 C-13.37640099 -2.28545649 -5.63441948 -0.85157037 0 0 Z " fill="#454545" transform="translate(468,272)"/>
<path d="M0 0 C0 0.66 0 1.32 0 2 C1.670625 2.12375 1.670625 2.12375 3.375 2.25 C15.64173244 3.8104324 25.74561274 11.3076055 35 19 C35.59683594 19.48726563 36.19367188 19.97453125 36.80859375 20.4765625 C49.64249615 32.03596651 55.10169089 49.17984569 56.2734375 65.90234375 C56.92512452 84.33123524 51.07065544 101.66161163 38.5625 115.4375 C34.48951082 119.75627903 30.18811978 124.03536013 25 127 C24.34 127 23.68 127 23 127 C23 127.66 23 128.32 23 129 C20.67300551 130.1604673 18.33970254 131.30316604 16 132.4375 C15.35160156 132.76298828 14.70320313 133.08847656 14.03515625 133.42382812 C9.40461895 135.64740297 5.14302661 136.7099797 0 137 C-0.92151855 137.05454346 -1.84303711 137.10908691 -2.79248047 137.1652832 C-23.58894215 138.13336592 -39.80068646 135.77678941 -56 122 C-65.85341645 112.73696768 -72.85037073 102.92043659 -77 90 C-77.3407959 89.08831055 -77.6815918 88.17662109 -78.03271484 87.23730469 C-79.72613893 81.56976217 -79.36905661 75.8125448 -79.375 69.9375 C-79.39949219 68.69033203 -79.42398437 67.44316406 -79.44921875 66.15820312 C-79.50304744 48.90610753 -73.25759164 34.81763243 -62 22 C-61.09121094 20.948125 -61.09121094 20.948125 -60.1640625 19.875 C-43.70026969 2.09132507 -23.00901894 -1.13316295 0 0 Z M-32 10 C-32.93972656 10.30421875 -33.87945312 10.6084375 -34.84765625 10.921875 C-48.894905 16.1741091 -60.10471446 27.92194176 -67 41 C-67.556875 41.928125 -68.11375 42.85625 -68.6875 43.8125 C-75.06425312 59.29890043 -75.06786618 77.39808615 -69 93 C-61.43287819 108.81083334 -48.74913095 121.8359722 -32.44140625 128.44140625 C-16.63391314 133.32488367 0.0925705 132.78140929 14.85595703 125.02490234 C31.11278055 115.92907563 42.75060826 102.06146649 48 84 C51.20263525 65.98786349 48.5063754 49.67267295 39 34 C33.64829565 26.98416143 26.73788134 18.64784283 18 16 C18 15.34 18 14.68 18 14 C15.56427941 13.16112944 13.12666783 12.32873471 10.6875 11.5 C9.99720703 11.26152344 9.30691406 11.02304687 8.59570312 10.77734375 C5.61068511 9.76791737 3.17341086 9 0 9 C0 8.34 0 7.68 0 7 C-3.45816686 6.91152683 -6.91603579 6.85912275 -10.375 6.8125 C-11.34050781 6.78736328 -12.30601562 6.76222656 -13.30078125 6.73632812 C-20.0667911 6.66821393 -25.64696254 7.71206371 -32 10 Z " fill="#EEEEEE" transform="translate(425,398)"/>
<path d="M0 0 C2 2 2 2 2.24050903 4.13870239 C2.23606781 5.0225058 2.23162659 5.9063092 2.22705078 6.81689453 C2.22682419 8.31822433 2.22682419 8.31822433 2.22659302 9.84988403 C2.21627045 10.93325043 2.20594788 12.01661682 2.1953125 13.1328125 C2.1924826 14.23978485 2.18965271 15.3467572 2.18673706 16.48727417 C2.17551519 20.03329137 2.15040691 23.57905875 2.125 27.125 C2.1149728 29.52473594 2.1058465 31.92447583 2.09765625 34.32421875 C2.07726836 40.21632022 2.03812299 46.10787948 2 52 C15.53 52 29.06 52 43 52 C44.20272819 54.40545638 44.10071472 55.94996953 44.0625 58.625 C44.05347656 59.44226563 44.04445313 60.25953125 44.03515625 61.1015625 C44.02355469 61.72804688 44.01195312 62.35453125 44 63 C41.53062549 64.23468725 39.88472841 64.13350873 37.12304688 64.14526367 C35.60136902 64.15483345 35.60136902 64.15483345 34.0489502 64.16459656 C32.4005011 64.16626579 32.4005011 64.16626579 30.71875 64.16796875 C29.59432495 64.17129715 28.4698999 64.17462555 27.31140137 64.17805481 C24.93074961 64.18312411 22.55009074 64.18546313 20.16943359 64.18530273 C16.51518137 64.18749091 12.86123008 64.20565146 9.20703125 64.22460938 C6.89843854 64.22754287 4.58984438 64.22952796 2.28125 64.23046875 C1.18228394 64.23765427 0.08331787 64.24483978 -1.0489502 64.25224304 C-2.0634021 64.24916641 -3.077854 64.24608978 -4.12304688 64.24291992 C-5.46635071 64.24505745 -5.46635071 64.24505745 -6.83679199 64.24723816 C-9 64 -9 64 -11 62 C-11.24050903 59.44369507 -11.24050903 59.44369507 -11.22705078 56.17333984 C-11.22689972 54.95222504 -11.22674866 53.73111023 -11.22659302 52.47299194 C-11.21637903 51.13563882 -11.20594702 49.79828735 -11.1953125 48.4609375 C-11.1915828 47.09616299 -11.18873563 45.73138581 -11.18673706 44.36660767 C-11.17909714 40.77279277 -11.15944572 37.17913927 -11.1373291 33.58538818 C-11.11687832 29.91892683 -11.107737 26.25243943 -11.09765625 22.5859375 C-11.07620003 15.39055138 -11.04205992 8.1952983 -11 1 C-7.07703567 -0.30765478 -4.13997567 -0.1971417 0 0 Z " fill="#F2F3F3" transform="translate(418,416)"/>
<path d="M0 0 C1.29513771 0.00256805 1.29513771 0.00256805 2.61643982 0.00518799 C13.30687881 0.02796116 23.99718894 0.06810199 34.6875 0.125 C34.6875 1.775 34.6875 3.425 34.6875 5.125 C19.85829124 5.14833939 5.02908491 5.1659843 -9.80013847 5.17681217 C-16.68528736 5.18197291 -23.57042484 5.1890114 -30.45556641 5.20043945 C-37.09504293 5.21145452 -43.73451069 5.21727774 -50.37399673 5.21987724 C-52.91223462 5.22173073 -55.45047182 5.22534988 -57.98870468 5.23073006 C-61.5326861 5.23794606 -65.07661794 5.2389907 -68.62060547 5.23852539 C-69.67939911 5.24212067 -70.73819275 5.24571594 -71.82907104 5.24942017 C-72.79103394 5.2480455 -73.75299683 5.24667084 -74.74411011 5.24525452 C-75.58294172 5.24617631 -76.42177334 5.2470981 -77.28602409 5.24804783 C-79.3125 5.125 -79.3125 5.125 -81.3125 4.125 C-83.516864 3.89549681 -85.72642173 3.71424067 -87.9375 3.5625 C-89.12601563 3.47871094 -90.31453125 3.39492188 -91.5390625 3.30859375 C-92.91191406 3.21771484 -92.91191406 3.21771484 -94.3125 3.125 C-94.3125 2.795 -94.3125 2.465 -94.3125 2.125 C-62.8597533 0.54690649 -31.48682229 -0.06287933 0 0 Z " fill="#D7D8D8" transform="translate(151.3125,488.875)"/>
<path d="M0 0 C6.79602605 -0.08461951 13.59174603 -0.14928173 20.38821411 -0.18435669 C22.48352583 -0.19687334 24.57881395 -0.21436151 26.67404175 -0.23690796 C29.58142801 -0.26645782 32.48823372 -0.27663559 35.39575195 -0.28131104 C36.2505011 -0.29361252 37.10525024 -0.305914 37.98590088 -0.31858826 C41.53148697 -0.30524103 43.75799888 -0.27743851 46.91259766 1.44232178 C48.3527832 3.04681396 48.3527832 3.04681396 48.3527832 5.04681396 C10.7327832 5.04681396 -26.8872168 5.04681396 -65.6472168 5.04681396 C-65.6472168 4.05681396 -65.6472168 3.06681396 -65.6472168 2.04681396 C-59.62910377 1.01861729 -53.71773663 0.83096551 -47.61987305 0.73040771 C-45.99695343 0.69896416 -45.99695343 0.69896416 -44.34124756 0.66688538 C-40.79747811 0.60043852 -37.25364727 0.54149475 -33.7097168 0.48431396 C-32.50100922 0.46413208 -31.29230164 0.4439502 -30.04696655 0.42315674 C-20.03158601 0.2584385 -10.01589358 0.12855931 0 0 Z " fill="#ECEDED" transform="translate(152.647216796875,553.9531860351563)"/>
<path d="M0 0 C0.33 0.66 0.66 1.32 1 2 C5.29 2 9.58 2 14 2 C14 2.33 14 2.66 14 3 C4.39420628 3.84444969 -5.09541481 4.12863845 -14.72984886 4.07516479 C-17.12014528 4.06207744 -19.51038431 4.05580357 -21.90071106 4.05102539 C-27.84429909 4.03784306 -33.78783275 4.01386654 -39.73138428 3.98962402 C-65.20720449 3.8876052 -90.58744227 3.91560153 -116 6 C-116 6.33 -116 6.66 -116 7 C-123.92 7 -131.84 7 -140 7 C-140.33 6.34 -140.66 5.68 -141 5 C-136.03570671 4.22947007 -131.11172515 3.7354359 -126.09375 3.46484375 C-125.2961879 3.42177597 -124.49862579 3.37870819 -123.67689514 3.33433533 C-120.95159745 3.19384647 -118.22598993 3.06383384 -115.5 2.9375 C-114.06731277 2.87021698 -114.06731277 2.87021698 -112.60568237 2.80157471 C-75.11824522 1.12492683 -37.51403 1.83095313 0 2 C0 1.34 0 0.68 0 0 Z " fill="#707170" transform="translate(186,486)"/>
<path d="M0 0 C1.09731445 0.00676758 1.09731445 0.00676758 2.21679688 0.01367188 C3.99873419 0.02531852 5.78062863 0.04324809 7.5625 0.0625 C7.5625 0.3925 7.5625 0.7225 7.5625 1.0625 C4.2625 1.3925 0.9625 1.7225 -2.4375 2.0625 C30.8925 2.0625 64.2225 2.0625 98.5625 2.0625 C98.5625 2.7225 98.5625 3.3825 98.5625 4.0625 C60.9425 4.0625 23.3225 4.0625 -15.4375 4.0625 C-15.4375 3.0725 -15.4375 2.0825 -15.4375 1.0625 C-10.23576905 0.19440561 -5.26771184 -0.06265348 0 0 Z " fill="#BEBEBE" transform="translate(102.4375,554.9375)"/>
<path d="M0 0 C0 0.33 0 0.66 0 1 C-1.12474731 1.03758423 -1.12474731 1.03758423 -2.2722168 1.07592773 C-5.7440816 1.19358641 -9.21578423 1.31552572 -12.6875 1.4375 C-14.45577148 1.49647461 -14.45577148 1.49647461 -16.25976562 1.55664062 C-24.19358612 1.83921505 -32.08973117 2.32754051 -40 3 C-40 3.33 -40 3.66 -40 4 C-47.92 4 -55.84 4 -64 4 C-64.33 3.34 -64.66 2.68 -65 2 C-58.50032316 0.88710569 -52.02086836 0.66045552 -45.4375 0.4375 C-44.23125977 0.3950415 -43.02501953 0.35258301 -41.78222656 0.30883789 C-27.85572043 -0.1356441 -13.93181046 -0.09572597 0 0 Z " fill="#9B9C9C" transform="translate(110,489)"/>
<path d="M0 0 C0.33 0 0.66 0 1 0 C1.125 2.875 1.125 2.875 1 6 C-3.29633174 10.29633174 -12.05953181 9.87437252 -17.92578125 10.125 C-19.95094951 10.125 -21.97603469 10.06979191 -24 10 C-24.33 11.32 -24.66 12.64 -25 14 C-28.3 13.34 -31.6 12.68 -35 12 C-35 13.65 -35 15.3 -35 17 C-35.33 17 -35.66 17 -36 17 C-36 15.02 -36 13.04 -36 11 C-34.68 10.67 -33.36 10.34 -32 10 C-32.66 9.34 -33.32 8.68 -34 8 C-32.76697144 7.970271 -32.76697144 7.970271 -31.5090332 7.93994141 C-27.77653874 7.84455397 -24.0445933 7.73492911 -20.3125 7.625 C-18.37213867 7.57859375 -18.37213867 7.57859375 -16.39257812 7.53125 C-15.14541016 7.49257813 -13.89824219 7.45390625 -12.61328125 7.4140625 C-11.46641846 7.3826416 -10.31955566 7.3512207 -9.13793945 7.31884766 C-6.01579385 7.00160482 -3.76584073 6.47279834 -1 5 C-0.10613836 2.45224694 -0.10613836 2.45224694 0 0 Z " fill="#B9B9B9" transform="translate(330,443)"/>
<path d="M0 0 C1.09731445 0.00676758 1.09731445 0.00676758 2.21679688 0.01367188 C3.99873419 0.02531852 5.78062863 0.04324809 7.5625 0.0625 C7.5625 0.3925 7.5625 0.7225 7.5625 1.0625 C4.2625 1.3925 0.9625 1.7225 -2.4375 2.0625 C0.8625 2.3925 4.1625 2.7225 7.5625 3.0625 C7.5625 3.3925 7.5625 3.7225 7.5625 4.0625 C-0.0275 4.0625 -7.6175 4.0625 -15.4375 4.0625 C-15.4375 3.0725 -15.4375 2.0825 -15.4375 1.0625 C-10.23576905 0.19440561 -5.26771184 -0.06265348 0 0 Z " fill="#818282" transform="translate(102.4375,554.9375)"/>
<path d="M0 0 C1.93552734 0.00676758 1.93552734 0.00676758 3.91015625 0.01367188 C7.06515375 0.02535705 10.22005137 0.04173956 13.375 0.0625 C13.375 0.3925 13.375 0.7225 13.375 1.0625 C6.115 1.3925 -1.145 1.7225 -8.625 2.0625 C-8.625 2.3925 -8.625 2.7225 -8.625 3.0625 C-15.225 3.0625 -21.825 3.0625 -28.625 3.0625 C-19.94151067 -1.27924467 -9.50507324 -0.06362819 0 0 Z " fill="#D3D4D4" transform="translate(124.625,554.9375)"/>
<path d="M0 0 C0.33 0 0.66 0 1 0 C1.33 10.56 1.66 21.12 2 32 C4.64 29.69 7.28 27.38 10 25 C10.66 25.33 11.32 25.66 12 26 C10.57084149 27.34227046 9.13137328 28.67357096 7.6875 30 C6.48673828 31.11375 6.48673828 31.11375 5.26171875 32.25 C3 34 3 34 0 34 C0 22.78 0 11.56 0 0 Z " fill="#666666" transform="translate(406,211)"/>
<path d="M0 0 C0.66 0.33 1.32 0.66 2 1 C-2.62 5.62 -7.24 10.24 -12 15 C-12 10.09687565 -8.29800369 7.38658643 -5 4 C-3.37458956 2.61667196 -1.72614587 1.25537882 0 0 Z " fill="#D1D1D1" transform="translate(424,244)"/>
<path d="M0 0 C0.66 0.33 1.32 0.66 2 1 C-2.95 5.95 -7.9 10.9 -13 16 C-13 11.93645091 -11.47015238 10.94829419 -8.75 8 C-7.96109375 7.13375 -7.1721875 6.2675 -6.359375 5.375 C-4.3351828 3.33740256 -2.34982916 1.63841299 0 0 Z " fill="#626362" transform="translate(286,128)"/>
<path d="M0 0 C0.99 0.33 1.98 0.66 3 1 C-0.96 4.96 -4.92 8.92 -9 13 C-9.66 12.67 -10.32 12.34 -11 12 C-7.37 8.04 -3.74 4.08 0 0 Z " fill="#5B5C5C" transform="translate(327,187)"/>
<path d="M0 0 C0.66 0.33 1.32 0.66 2 1 C-2.29 5.29 -6.58 9.58 -11 14 C-11 9.40845608 -8.09282279 7.18698368 -5 4 C-3.3719908 2.61973133 -1.71956118 1.26438322 0 0 Z " fill="#646464" transform="translate(414,183)"/>
<path d="M0 0 C0.66 0.33 1.32 0.66 2 1 C-2.29 5.29 -6.58 9.58 -11 14 C-11 9.40845608 -8.09282279 7.18698368 -5 4 C-3.3719908 2.61973133 -1.71956118 1.26438322 0 0 Z " fill="#D1D1D1" transform="translate(292,136)"/>
<path d="M0 0 C0.66 0.33 1.32 0.66 2 1 C-2.29 5.29 -6.58 9.58 -11 14 C-11 9.40845608 -8.09282279 7.18698368 -5 4 C-3.3719908 2.61973133 -1.71956118 1.26438322 0 0 Z " fill="#D4D5D5" transform="translate(337,194)"/>
<path d="M0 0 C0.66 0.33 1.32 0.66 2 1 C-1.63 4.63 -5.26 8.26 -9 12 C-9.66 11.67 -10.32 11.34 -11 11 C-7.6189962 6.86378916 -4.33409466 3.18683431 0 0 Z " fill="#696B6A" transform="translate(316,278)"/>
<path d="M0 0 C-1.40844718 3.21524305 -3.10344786 5.32183868 -5.625 7.75 C-6.57246094 8.67039062 -6.57246094 8.67039062 -7.5390625 9.609375 C-8.02117187 10.06828125 -8.50328125 10.5271875 -9 11 C-9 7.25983417 -8.0658409 6.54723807 -5.625 3.8125 C-4.99851562 3.09707031 -4.37203125 2.38164062 -3.7265625 1.64453125 C-2 0 -2 0 0 0 Z " fill="#D6D7D7" transform="translate(323,289)"/>
<path d="M0 0 C6.33393082 -0.34548714 11.10261508 0.70657253 17 3 C13.12813552 4.44715727 10.1767672 3.5441918 6.25 2.5625 C5.07953125 2.27503906 3.9090625 1.98757813 2.703125 1.69140625 C1.81109375 1.46324219 0.9190625 1.23507812 0 1 C0 0.67 0 0.34 0 0 Z " fill="#B3B2B2" transform="translate(367,598)"/>
<path d="M0 0 C-3.42346555 3.14958831 -6.44262737 3.56179109 -11 4 C-4.625 -0.25 -4.625 -0.25 0 0 Z " fill="#A7A6A5" transform="translate(440,530)"/>
</svg>
